Coordinates
version=1
nRows=7
nColumns=46
inDegrees=yes

Units are S.I. units (second, meters, Newtons, ...)
Angles are in degrees.

endheader
time	pelvis_tilt	pelvis_list	pelvis_rotation	pelvis_tx	pelvis_ty	pelvis_tz	bb_angle	bb_tx	bb_ty	bb_tz	hip_flexion_r	hip_adduction_r	hip_rotation_r	knee_angle_r	knee_angle_r_beta	ankle_angle_r	subtalar_angle_r	mtp_angle_r	crank_angle_r	hip_flexion_l	hip_adduction_l	hip_rotation_l	knee_angle_l	knee_angle_l_beta	ankle_angle_l	subtalar_angle_l	mtp_angle_l	crank_angle_l	lumbar_extension	lumbar_bending	lumbar_rotation	arm_flex_r	arm_add_r	arm_rot_r	elbow_flex_r	pro_sup_r	wrist_flex_r	wrist_dev_r	arm_flex_l	arm_add_l	arm_rot_l	elbow_flex_l	pro_sup_l	wrist_flex_l	wrist_dev_l
      2.50000000	    -27.91513356	     -6.90706225	      1.85310127	      0.36419909	      1.17331838	     -0.30636879	      0.00000000	      0.50000000	      0.00000000	      0.25000000	     55.84044649	     -5.98557363	     -6.67774855	     85.80523209	      1.49758382	     -1.00082039	     -3.51486949	      0.00000000	      0.00000000	     56.85381955	     -7.01283302	      4.58354229	     48.42553460	      0.84518502	      3.92684125	     -4.50558704	      0.00000000	      0.00000000	    -56.12885711	      6.58968981	    -12.49861228	     56.24370492	     -4.15441940	     32.45390054	     69.41543233	     48.15635562	      0.00000000	      0.00000000	     24.98686001	    -29.48230377	     -3.00900703	    101.43595475	     52.94085926	      0.00000000	      0.00000000
      2.50500000	    -27.72797774	     -7.47907098	      1.45761864	      0.36520735	      1.17191841	     -0.30628799	      0.00000000	      0.50000000	      0.00000000	      0.25000000	     56.61127049	     -5.57948993	     -6.85093801	     87.47983331	      1.52681112	     -0.36595595	     -3.14490946	      0.00000000	      0.00000000	     55.71333771	     -8.00989561	      4.23303998	     47.02862737	      0.82080439	      3.18331153	     -3.73608933	      0.00000000	      0.00000000	    -56.12011109	      6.86476043	    -11.93015678	     56.24390988	     -4.15212188	     32.59852814	     69.29368270	     48.14581486	      0.00000000	      0.00000000	     24.41601475	    -29.53501947	     -2.91317089	    101.22219903	     52.91065776	      0.00000000	      0.00000000
      2.51000000	    -27.42616315	     -7.94583377	      1.00626214	      0.36626112	      1.17058607	     -0.30619354	      0.00000000	      0.50000000	      0.00000000	      0.25000000	     57.32191249	     -5.21737300	     -6.89459312	     89.19868612	      1.55681076	      0.29800804	     -2.44322629	      0.00000000	      0.00000000	     54.45539651	     -9.02624297	      3.63067255	     45.78009030	      0.79901331	      2.70569065	     -2.79387599	      0.00000000	      0.00000000	    -56.24165654	      6.99282103	    -11.34559539	     56.28138393	     -4.26687163	     33.02716138	     69.13364469	     48.16404877	      0.00000000	      0.00000000	     23.94997408	    -29.74829920	     -3.10726319	    100.99020447	     52.85395448	      0.00000000	      0.00000000
      2.51500000	    -27.25176112	     -8.53385386	      0.69426337	      0.36710822	      1.16920602	     -0.30637706	      0.00000000	      0.50000000	      0.00000000	      0.25000000	     58.16187943	     -4.88898558	     -7.13495476	     90.83704899	      1.58540559	      0.67492644	     -2.27335605	      0.00000000	      0.00000000	     53.35092697	     -9.92449379	      3.34110041	     44.49999524	      0.77667143	      2.02124281	     -2.10691461	      0.00000000	      0.00000000	    -56.26463365	      7.38215850	    -10.70582750	     56.29739922	     -4.33754530	     33.23827752	     69.07472196	     48.17337030	      0.00000000	      0.00000000	     23.57494864	    -29.89230888	     -3.28009159	    100.84237886	     52.80763378	      0.00000000	      0.00000000
      2.52000000	    -26.88770228	     -8.95541646	      0.16453154	      0.36824767	      1.16825967	     -0.30616005	      0.00000000	      0.50000000	      0.00000000	      0.25000000	     58.84999634	     -4.44198812	     -7.07627630	     92.44384181	      1.61344941	      1.15220657	     -1.71266145	      0.00000000	      0.00000000	     51.90880941	    -10.99585923	      2.51838754	     43.20894156	      0.75413830	      1.63981144	     -1.02511980	      0.00000000	      0.00000000	    -56.47979217	      7.47374844	    -10.18747888	     56.47019138	     -4.46934013	     34.07534497	     68.95580075	     48.24025369	      0.00000000	      0.00000000	     23.05814047	    -30.16554876	     -3.43011911	    100.65700973	     52.76699596	      0.00000000	      0.00000000
      2.52500000	    -26.76516779	     -9.54485082	     -0.08581085	      0.36902225	      1.16699304	     -0.30659868	      0.00000000	      0.50000000	      0.00000000	      0.25000000	     59.77156802	     -4.20366386	     -7.38025557	     93.98644139	      1.64037285	      1.39106267	     -1.59534668	      0.00000000	      0.00000000	     50.81538345	    -11.81048272	      2.24655362	     41.92426087	      0.73171639	      0.94652305	     -0.41753682	      0.00000000	      0.00000000	    -56.46744021	      7.96863987	     -9.57174233	     56.48693244	     -4.50465397	     34.27169505	     68.89950933	     48.24560518	      0.00000000	      0.00000000	     22.63283546	    -30.30249651	     -3.43139621	    100.52301130	     52.73761740	      0.00000000	      0.00000000
      2.53000000	    -26.38662485	     -9.94177619	     -0.71936020	      0.37035290	      1.16648345	     -0.30628119	      0.00000000	      0.50000000	      0.00000000	      0.25000000	     60.43452553	     -3.64355536	     -7.25962844	     95.43843531	      1.66571493	      1.77674774	     -1.13251845	      0.00000000	      0.00000000	     49.22191912	    -12.96268932	      1.15551427	     40.57057883	      0.70809018	      0.54014500	      0.85725766	      0.00000000	      0.00000000	    -56.73388390	      7.93289765	     -9.04923601	     56.80561208	     -4.74267064	     35.41091288	     68.66180388	     48.32028890	      0.00000000	      0.00000000	     22.07706412	    -30.86632652	     -3.29341113	    100.27289837	     52.71144009	      0.00000000	      0.00000000
